<mxfile host="Electron" modified="2024-09-18T19:38:25.231Z" agent="Mozilla/5.0 (X11; Linux x86_64) AppleWebKit/537.36 (KHTML, like Gecko) draw.io/24.6.4 Chrome/124.0.6367.207 Electron/30.0.6 Safari/537.36" etag="-fsxtU7bmETGwLqfFe6R" version="24.6.4" type="device">
  <diagram name="Page-1" id="uTn-evIf6Q-hgHV7F_A3">
    <mxGraphModel dx="1444" dy="586" grid="1" gridSize="10" guides="1" tooltips="1" connect="1" arrows="1" fold="1" page="1" pageScale="1" pageWidth="850" pageHeight="1100" math="0" shadow="0">
      <root>
        <mxCell id="0" />
        <mxCell id="1" parent="0" />
        <mxCell id="UyPC5gKtdMc87XSLSW9K-4" value="" style="html=1;shape=mxgraph.basic.isocube;isoAngle=15;fillColor=#6d8764;fontColor=#ffffff;strokeColor=#3A5431;" parent="1" vertex="1">
          <mxGeometry x="40" y="650" width="100" height="60" as="geometry" />
        </mxCell>
        <mxCell id="UyPC5gKtdMc87XSLSW9K-27" value="" style="html=1;shape=mxgraph.basic.isocube;isoAngle=15;fillColor=#e51400;fontColor=#ffffff;strokeColor=#B20000;" parent="1" vertex="1">
          <mxGeometry x="40" y="630" width="100" height="60" as="geometry" />
        </mxCell>
        <mxCell id="UyPC5gKtdMc87XSLSW9K-28" value="" style="html=1;shape=mxgraph.basic.isocube;isoAngle=15;fillColor=#f0a30a;fontColor=#000000;strokeColor=#BD7000;" parent="1" vertex="1">
          <mxGeometry x="40" y="610" width="100" height="60" as="geometry" />
        </mxCell>
        <mxCell id="UyPC5gKtdMc87XSLSW9K-29" value="" style="html=1;shape=mxgraph.basic.isocube;isoAngle=15;fillColor=#76608a;fontColor=#ffffff;strokeColor=#432D57;" parent="1" vertex="1">
          <mxGeometry x="40" y="590" width="100" height="60" as="geometry" />
        </mxCell>
        <mxCell id="rRtnU6kyMSIYgJpVnsUB-1" value="&lt;font face=&quot;Helvetica&quot;&gt;VELOCITY&lt;/font&gt;" style="text;align=center;verticalAlign=middle;whiteSpace=wrap;rounded=0;glass=0;shadow=0;textShadow=0;fontSize=136;fontFamily=Courier New;labelBorderColor=none;labelBackgroundColor=none;html=1;horizontal=1;fontStyle=0;fontColor=#666666;" parent="1" vertex="1">
          <mxGeometry x="210" y="600" width="570" height="120" as="geometry" />
        </mxCell>
      </root>
    </mxGraphModel>
  </diagram>
</mxfile>
